Coordinates
version=1
nRows=5
nColumns=107
inDegrees=yes

Units are S.I. units (second, meters, Newtons, ...)
If the header above contains a line with 'inDegrees', this indicates whether rotational values are in degrees (yes) or radians (no).

endheader
time	sternoclavicular_r2	sternoclavicular_r3	unrotscap_r3	unrotscap_r2	acromioclavicular_r2	acromioclavicular_r3	acromioclavicular_r1	unrothum_r1	unrothum_r3	unrothum_r2	elv_angle	shoulder_elv	shoulder1_r2	shoulder_rot	elbow_flexion	pro_sup	deviation	flexion	proximal_distal_r1	proximal_distal_r3	cmc_flexion	cmc_abduction	mp_flexion	ip_flexion	mcp2_flexion	mcp2_abduction	pm2_flexion	md2_flexion	mcp3_flexion	mcp3_abduction	pm3_flexion	md3_flexion	mcp4_flexion	mcp4_abduction	pm4_flexion	md4_flexion	mcp5_flexion	mcp5_abduction	pm5_flexion	md5_flexion	bicpt_tx	bicpt_ty	bicpt_tz	bicpt2_tx	bicpt2_ty	bicpt2_tz	ptpt_tx	ptpt_ty	ptpt_tz	FCUpt_tx	FCUpt_ty	FCUpt_tz	EDCpt_tx	EDCpt_ty	EDCpt_tz	APLpt_tx	APLpt_ty	APLpt_tz	FPLpt_tx	FPLpt_ty	FPLpt_tz	FPLpt2_tx	FPLpt2_ty	FPLpt2_tz	PEC1pt2_tx	PEC1pt2_ty	PEC1pt2_tz	PEC1pt3_tx	PEC1pt3_ty	PEC1pt3_tz	PEC2pt2_tx	PEC2pt2_ty	PEC2pt2_tz	PEC2pt3_tx	PEC2pt3_ty	PEC2pt3_tz	PEC3pt2_tx	PEC3pt2_ty	PEC3pt2_tz	PEC3pt3_tx	PEC3pt3_ty	PEC3pt3_tz	DELT2pt2a_tx	DELT2pt2a_ty	DELT2pt2a_tz	DELT2pt2_tx	DELT2pt2_ty	DELT2pt2_tz	LAT1pt2_tx	LAT1pt2_ty	LAT1pt2_tz	LAT1pt3_tx	LAT1pt3_ty	LAT1pt3_tz	LAT2pt2_tx	LAT2pt2_ty	LAT2pt2_tz	LAT2pt3_tx	LAT2pt3_ty	LAT2pt3_tz	LAT3pt2_tx	LAT3pt2_ty	LAT3pt2_tz	LAT3pt3_tx	LAT3pt3_ty	LAT3pt3_tz
      0.80000000	     -0.30848726	      0.13066065	     -0.13066065	      0.30848726	     -0.06246240	      0.50479911	      0.22690373	     -0.22690373	     -0.50479911	      0.06246240	    102.76750854	     73.03710189	     -1.79363139	    -42.68933916	     31.43593296	     88.86794021	      0.40602169	     -0.41870114	      0.41609517	     -0.20935057	     28.03323291	     -4.34175014	     -5.53242183	     -3.62729497	     25.38645833	      7.41662874	     30.22385766	      6.86819815	     34.45460577	     -2.74270567	     30.44776458	     19.77188661	     29.82266832	    -12.72521553	     42.35094486	     25.59201984	     17.15300462	    -14.48493870	     51.25025009	      5.21739866	      0.00093980	     -0.03120304	     -0.00488036	      0.01393404	     -0.01873973	     -0.00057914	      0.00098366	     -0.06914590	     -0.00720879	      0.01306873	     -0.18213945	      0.00016589	     -0.01066413	      0.00373667	     -0.00085154	      0.00028160	      0.00011264	      0.00056320	      0.00036045	      0.00108134	      0.00060825	     -0.00000554	     -0.00026425	     -0.00031710	      0.00239400	      0.00839927	      0.00584297	     -0.00783121	      0.01890851	     -0.01793468	      0.00239400	      0.00839927	      0.00584297	      0.00052749	      0.01752892	     -0.00921080	      0.00382766	      0.00467073	      0.01566616	      0.00000000	      0.00713015	      0.00000000	     -0.00685738	     -0.03169001	     -0.00587524	      0.02342633	     -0.00120943	     -0.01453249	     -0.00085210	      0.01428282	     -0.00584297	      0.00235342	      0.02061271	     -0.01704200	     -0.00572124	      0.01237574	     -0.00523433	     -0.01192940	      0.02613107	     -0.02925544	     -0.02239806	      0.01383648	     -0.00701968	     -0.01485089	      0.03018869	     -0.03655916
      0.83333333	     -0.30664854	      0.12988185	     -0.12988185	      0.30664854	     -0.06209009	      0.50179028	      0.22555128	     -0.22555128	     -0.50179028	      0.06209009	    103.31763079	     72.60176800	     -1.80323283	    -44.49253378	     31.85522432	     88.65448139	      0.40083347	     -0.36974415	      0.41248002	     -0.18487207	     24.93895252	     -1.25738620	     -7.49667762	     -5.07189119	     20.62968884	      7.40453195	     26.69546662	      4.08434918	     26.67758810	     -2.20230192	     27.03483960	     18.64996415	     21.24586381	    -11.74369304	     37.81520413	     24.25816310	      7.75455478	    -14.45411241	     42.43250065	      5.27688303	      0.00095367	     -0.03125110	     -0.00488810	      0.01395746	     -0.01885363	     -0.00061653	      0.00099943	     -0.06913570	     -0.00719159	      0.01304403	     -0.18214684	      0.00015956	     -0.01063851	      0.00372477	     -0.00084436	      0.00026394	      0.00010558	      0.00052788	      0.00033784	      0.00101353	      0.00057011	      0.00000037	     -0.00027795	     -0.00033354	      0.00237973	      0.00834921	      0.00580815	     -0.00778453	      0.01879581	     -0.01782778	      0.00237973	      0.00834921	      0.00580815	      0.00052435	      0.01742444	     -0.00915590	      0.00381065	      0.00464289	      0.01562233	      0.00000000	      0.00704490	      0.00000000	     -0.00681651	     -0.03150113	     -0.00580439	      0.02389804	     -0.00127612	     -0.01564770	     -0.00084702	      0.01419769	     -0.00580815	      0.00233939	      0.02048985	     -0.01694043	     -0.00568714	      0.01230198	     -0.00520313	     -0.01185830	      0.02597532	     -0.02908107	     -0.02226456	      0.01375401	     -0.00697784	     -0.01476237	      0.03000876	     -0.03634125
      0.86666667	     -0.30633029	      0.12974705	     -0.12974705	      0.30633029	     -0.06202565	      0.50126951	      0.22531720	     -0.22531720	     -0.50126951	      0.06202565	    103.79116719	     72.52642006	     -1.81149760	    -45.57768035	     31.56500602	     88.36685489	      0.38892355	     -0.38589133	      0.40401583	     -0.19294567	     23.37014793	      1.05165099	     -9.44659765	     -6.32374270	     17.00290567	      8.07052130	     24.94582997	      3.13151474	     21.72125908	     -1.16092280	     24.49432000	     17.91767269	     16.21159164	    -10.54628608	     33.92475832	     22.94003205	      2.30550837	    -14.42242643	     37.65090568	      5.11882209	      0.00094407	     -0.03121783	     -0.00488274	      0.01398885	     -0.01877479	     -0.00066680	      0.00102069	     -0.06912196	     -0.00716842	      0.01301076	     -0.18215679	      0.00015109	     -0.01060400	      0.00370876	     -0.00083473	      0.00027012	      0.00010805	      0.00054024	      0.00034575	      0.00103726	      0.00058346	      0.00000380	     -0.00028084	     -0.00033701	      0.00237726	      0.00834055	      0.00580212	     -0.00777645	      0.01877630	     -0.01780928	      0.00237726	      0.00834055	      0.00580212	      0.00052380	      0.01740636	     -0.00914640	      0.00380770	      0.00463807	      0.01561469	      0.00000000	      0.00703021	      0.00000000	     -0.00680943	     -0.03146843	     -0.00579218	      0.02416075	     -0.00131646	     -0.01632986	     -0.00084614	      0.01418296	     -0.00580212	      0.00233696	      0.02046858	     -0.01692285	     -0.00568124	      0.01228921	     -0.00519773	     -0.01184599	      0.02594836	     -0.02905089	     -0.02224145	      0.01373974	     -0.00697060	     -0.01474705	      0.02997761	     -0.03630353
      0.90000000	     -0.30615411	      0.12967243	     -0.12967243	      0.30615411	     -0.06198998	      0.50098121	      0.22518761	     -0.22518761	     -0.50098121	      0.06198998	    103.72870257	     72.48470715	     -1.81040739	    -45.40819665	     31.89746276	     88.11685554	      0.38255212	     -0.35200680	      0.39939208	     -0.17600340	     21.97903142	      2.16619565	    -10.85892376	     -7.59338547	     13.60143744	      8.23183400	     23.78321774	      1.97686907	     16.78758560	     -0.68527903	     22.92516267	     17.49768618	     12.20621618	     -9.57223007	     30.62539361	     22.12035627	     -1.10876492	    -14.39426654	     32.48476386	      5.27746634	      0.00095507	     -0.03125594	     -0.00488888	      0.01401597	     -0.01886510	     -0.00071039	      0.00103916	     -0.06911002	     -0.00714829	      0.01298187	     -0.18216541	      0.00014379	     -0.01057400	      0.00369487	     -0.00082640	      0.00025654	      0.00010262	      0.00051309	      0.00032838	      0.00098513	      0.00055414	      0.00000703	     -0.00028112	     -0.00033734	      0.00237589	      0.00833575	      0.00579878	     -0.00777198	      0.01876550	     -0.01779904	      0.00237589	      0.00833575	      0.00579878	      0.00052350	      0.01739634	     -0.00914113	      0.00380606	      0.00463540	      0.01561046	      0.00000000	      0.00702208	      0.00000000	     -0.00680551	     -0.03145034	     -0.00578542	      0.02412070	     -0.00131015	     -0.01622283	     -0.00084566	      0.01417480	     -0.00579878	      0.00233562	      0.02045681	     -0.01691311	     -0.00567797	      0.01228214	     -0.00519474	     -0.01183918	      0.02593344	     -0.02903418	     -0.02222866	      0.01373184	     -0.00696659	     -0.01473857	      0.02996037	     -0.03628265
      0.93333333	     -0.30729324	      0.13015491	     -0.13015491	      0.30729324	     -0.06222063	      0.50284524	      0.22602548	     -0.22602548	     -0.50284524	      0.06222063	    103.58320417	     72.75440531	     -1.80786796	    -44.45754399	     31.49843752	     88.04237455	      0.38699298	     -0.36212729	      0.40262174	     -0.18106365	     22.02419385	      2.72061962	    -10.85375960	     -7.69981996	     12.04401961	      9.05050060	     23.11313771	      1.69321396	     14.81202336	      0.23014611	     21.98222616	     17.24307936	     11.07876453	     -8.88588416	     29.78799597	     21.86390008	     -1.09041141	    -14.39577611	     31.85215852	      5.14529980	      0.00094187	     -0.03121020	     -0.00488151	      0.01402402	     -0.01875671	     -0.00072337	      0.00104466	     -0.06910646	     -0.00714229	      0.01297326	     -0.18216798	      0.00014162	     -0.01056506	      0.00369073	     -0.00082393	      0.00026069	      0.00010427	      0.00052137	      0.00033368	      0.00100104	      0.00056308	      0.00000692	     -0.00028112	     -0.00033735	      0.00238473	      0.00836676	      0.00582036	     -0.00780090	      0.01883532	     -0.01786526	      0.00238473	      0.00836676	      0.00582036	      0.00052545	      0.01746107	     -0.00917515	      0.00381662	      0.00465265	      0.01563775	      0.00000000	      0.00707474	      0.00000000	     -0.00683084	     -0.03156735	     -0.00582919	      0.02388915	     -0.00127483	     -0.01562592	     -0.00084880	      0.01422754	     -0.00582036	      0.00234431	      0.02053293	     -0.01697604	     -0.00569910	      0.01232784	     -0.00521407	     -0.01188323	      0.02602993	     -0.02914221	     -0.02231137	      0.01378293	     -0.00699251	     -0.01479341	      0.03007185	     -0.03641765
